<svg width="4901" height="1058" viewBox="0 0 4901 1058" fill="none" xmlns="http://www.w3.org/2000/svg">
<path d="M4889.08 970.485C4868.96 966.932 4880.28 969.142 4873.36 968.235L4869.28 967.958H4867.39H4864.88H4861.42H4851.36L4833.75 967.721L4765.37 967.169L4629.71 966.458L4547.97 966.182L4538.22 619.318L4559.76 79.3441C4583.02 78.673 4605.82 78.0019 4627.98 77.2914C4705.64 74.765 4779.36 71.7649 4813.16 68.528C4827.81 67.1986 4842.13 65.6565 4856.07 63.9095C4861.57 63.12 4867.23 62.37 4872.73 61.541C4878.16 60.7391 4883.09 59.7416 4887.35 58.5804C4888.69 58.23 4889.8 57.8307 4890.66 57.3962C4891.77 56.7134 4891.77 55.9473 4890.66 55.2645C4889.01 54.4216 4886.59 53.6905 4883.58 53.1329C4878.65 52.2423 4873.39 51.4755 4867.86 50.8434L4852.14 48.9486C4846.64 48.317 4839.88 47.7644 4833.59 47.1328C4815.98 45.5079 4797.76 44.3309 4779.2 43.6195C4753.58 42.5932 4718.53 41.8826 4680.01 41.2905C4641.5 40.6984 4602.36 40.3826 4560.86 40.1063V31.8955C4560.86 21.79 4537.28 13.6188 4507.89 13.6188C4478.49 13.6188 4454.91 21.79 4454.91 31.8955V39.5141H4423.47L4246.63 39.0799C4036.61 38.7641 3826.76 39.0799 3616.9 39.5536C2777.64 41.7247 1939 46.6591 1100.21 52.225C1013.75 52.9355 944.271 59.4488 945.372 66.8306C946.472 74.2124 1017.21 79.5414 1103.67 78.8704L1901.59 71.9623C2379.78 68.0148 3016.57 63.1595 3650.54 60.1199C3809 59.4094 3967.29 58.8172 4122.13 58.5015L4353.05 58.3041H4436.99H4455.07V64.6595L4427.4 65.5674L4394.7 66.4753L4377.73 66.949L4336.86 67.857C4104.68 72.7913 3912.43 75.1598 3780.86 76.7782L3589.87 78.8704C2992.52 83.4494 2394.08 84.0021 1796.11 83.3705C1367.18 82.8442 938.141 81.5283 508.998 79.423L511.356 18.9084C511.356 8.44758 487.62 0 458.224 0C428.829 0 405.25 8.44758 405.25 18.9084L407.606 78.9493C272.418 78.2914 137.179 77.5546 1.88627 76.7388L0 97.463C136.236 98.0419 272.472 98.5551 408.707 99.0025L429.142 625.515L422.069 948.537L241.137 947.629C188.791 947.629 146.821 953.353 145.878 960.695C144.934 968.037 187.691 974.116 240.195 974.274L421.439 974.472L419.238 1058H501.766L499.567 974.551L3275.63 977.314L4357.92 982.88L4418.6 983.235C4373.33 985.13 4328.05 987.077 4282.78 989.077L4298.5 1009.49C4355.3 1006.85 4412.26 1004.22 4469.37 1001.59L4468.27 1037.83H4550.96L4549.7 998.156L4564 997.525C4652.66 993.893 4741.63 990.419 4829.82 987.932L4863.93 987.064H4869.28C4872.59 986.898 4875.81 986.632 4878.87 986.274C4884.53 985.601 4889.46 984.592 4893.23 983.335C4897 982.077 4899.49 980.608 4900.5 979.054C4901.5 977.5 4900.99 975.908 4899 974.415C4897.01 972.923 4893.61 971.574 4889.08 970.485ZM4470.16 965.392L4360.12 964.998L3277.36 962.392L499.722 948.774L490.92 625.081L511.356 98.884C941.023 100.147 1370.27 100.713 1799.1 100.581C2397.7 100.187 2996.45 98.6472 3595.05 93.0813C3804.91 91.4628 4014.76 89.1338 4223.83 85.9363L4302.43 84.5942L4382.76 83.0547L4442.65 81.752L4458.37 81.3573L4479.9 618.726L4470.16 965.392Z" fill="#FE6F61"/>
</svg>
